<?xml version="1.0" encoding="utf-8"?>
<!-- Generator: Adobe Illustrator 23.0.0, SVG Export Plug-In . SVG Version: 6.00 Build 0)  -->
<svg version="1.1" id="Ebene_1" xmlns="http://www.w3.org/2000/svg" xmlns:xlink="http://www.w3.org/1999/xlink" x="0px" y="0px"
	 viewBox="0 0 120 120" style="enable-background:new 0 0 120 120;" xml:space="preserve">
<path d="M24,46C24,25.2,40.1,8.3,60,8.3S96,25.2,96,46c0,7.1-3.6,16.7-10.1,28.7c-2,3.6-4.2,7.4-6.5,11.3c-3.5,5.8-7.3,11.5-11.1,17
	c-1.3,1.9-2.6,3.6-3.7,5.2c-0.4,0.5-0.7,1-1,1.4c-0.2,0.2-0.3,0.4-0.4,0.5c-1.6,2.2-4.7,2.2-6.3,0c-0.1-0.1-0.2-0.3-0.4-0.5
	c-0.3-0.4-0.6-0.9-1-1.4c-1.1-1.5-2.3-3.3-3.7-5.2c-3.8-5.5-7.6-11.2-11.1-17c-2.4-3.9-4.6-7.7-6.5-11.3C27.6,62.7,24,53.1,24,46z"
	/>
</svg>
